<?xml version="1.0" standalone="no"?>
<!DOCTYPE svg PUBLIC "-//W3C//DTD SVG 20010904//EN"
 "http://www.w3.org/TR/2001/REC-SVG-20010904/DTD/svg10.dtd">
<svg version="1.0" xmlns="http://www.w3.org/2000/svg"
 width="500.000000pt" height="500.000000pt" viewBox="0 0 500.000000 500.000000"
 preserveAspectRatio="xMidYMid meet">
<metadata>
Created by potrace 1.14, written by Peter Selinger 2001-2017
</metadata>
<g transform="translate(0.000000,500.000000) scale(0.100000,-0.100000)"
fill="#000000" stroke="none">
<path d="M2306 4992 c-3 -2 -31 -5 -63 -7 -32 -2 -65 -5 -73 -8 -17 -6 -71
-16 -115 -20 -16 -2 -50 -9 -75 -17 -25 -7 -48 -13 -52 -12 -5 1 -8 -2 -8 -6
0 -4 -10 -9 -22 -10 -40 -4 -52 -8 -85 -25 -18 -10 -33 -15 -33 -12 0 3 -28
-9 -62 -27 -35 -18 -65 -32 -68 -33 -12 -2 -115 -58 -120 -65 -3 -4 -17 -13
-31 -21 -33 -17 -113 -74 -163 -114 -50 -41 -196 -182 -196 -189 0 -4 -12 -19
-28 -34 -15 -15 -45 -52 -67 -82 -22 -30 -43 -59 -48 -65 -27 -35 -90 -143
-127 -220 -56 -117 -56 -119 -80 -195 -12 -36 -24 -72 -27 -80 -8 -19 -9 -27
-17 -71 -3 -20 -10 -47 -15 -60 -5 -13 -9 -27 -10 -31 0 -5 -2 -9 -2 -10 -1
-2 -3 -16 -5 -33 -1 -16 -5 -48 -8 -70 -3 -22 -7 -56 -9 -75 -2 -20 -6 -41
-10 -47 -4 -6 -3 -14 3 -18 6 -4 7 -13 1 -23 -4 -9 -8 -43 -7 -75 1 -31 -2
-57 -5 -57 -3 0 -4 -12 -2 -27 4 -30 4 -30 0 -86 -1 -21 1 -43 5 -50 4 -6 2
-17 -4 -24 -6 -7 -7 -13 -2 -13 5 0 10 -42 11 -93 1 -50 4 -137 6 -192 6 -133
1 -144 -43 -102 -14 12 -27 22 -30 23 -3 0 -12 3 -20 6 -45 18 -60 15 -94 -16
-26 -22 -39 -45 -47 -81 -6 -27 -16 -58 -21 -69 -7 -12 -6 -16 1 -11 6 3 11
-1 11 -10 0 -10 -5 -13 -12 -9 -10 6 -10 5 -1 -7 10 -12 10 -18 0 -29 -9 -10
-9 -11 0 -6 7 4 13 3 13 -3 0 -5 -6 -12 -12 -14 -10 -4 -9 -6 1 -6 11 -1 11
-4 0 -18 -10 -11 -10 -14 -1 -9 9 5 12 -4 13 -36 2 -47 2 -55 14 -143 12 -96
13 -98 24 -145 6 -25 14 -63 16 -85 3 -22 8 -51 11 -65 3 -14 7 -35 9 -47 2
-11 6 -30 9 -41 4 -11 8 -29 10 -39 8 -38 40 -109 58 -126 10 -10 18 -22 18
-27 0 -14 55 -40 83 -40 21 0 26 -6 32 -42 4 -24 9 -50 10 -58 2 -8 6 -31 8
-50 7 -45 66 -249 80 -275 6 -11 10 -23 9 -27 -3 -13 116 -265 129 -274 5 -3
7 -10 4 -15 -4 -5 -2 -9 3 -9 5 0 12 -8 16 -17 3 -10 11 -27 18 -37 7 -11 16
-25 20 -30 26 -40 175 -196 187 -196 3 0 20 -12 36 -26 33 -28 141 -94 155
-94 4 0 10 -4 12 -9 3 -9 212 -111 228 -111 21 0 140 -59 196 -97 70 -47 124
-76 124 -66 0 4 7 -2 15 -13 8 -10 15 -16 15 -12 0 3 24 -3 53 -14 28 -11 63
-21 77 -23 14 -2 25 -4 25 -5 0 -1 7 -3 15 -5 8 -2 26 -7 40 -11 40 -11 299
-14 305 -4 3 5 12 7 20 4 8 -3 20 -2 27 2 7 5 18 9 23 10 6 1 24 5 41 8 17 3
46 12 65 20 19 8 36 14 39 15 11 0 85 34 90 40 3 3 31 19 62 35 31 15 58 32
60 37 2 6 10 11 18 13 8 2 22 5 30 8 8 3 51 18 95 33 44 15 94 33 110 40 108
46 184 81 208 98 15 10 33 20 40 21 14 3 80 36 87 45 3 3 32 24 65 46 73 49
199 172 246 240 19 28 36 52 39 55 13 13 51 87 62 118 1 4 10 16 20 26 10 11
18 26 18 33 0 7 4 13 10 13 5 0 9 3 8 8 -2 7 6 27 49 122 43 95 61 146 70 195
3 17 9 35 15 42 5 7 11 22 13 35 2 13 7 41 10 63 4 22 8 48 9 58 4 32 31 48
83 51 28 1 59 8 69 16 49 40 71 70 92 125 13 33 28 69 33 80 8 19 16 51 24
100 2 11 4 20 5 20 1 0 4 16 7 35 2 19 8 37 11 40 4 3 8 16 8 30 2 35 15 113
20 122 16 25 26 341 13 404 -14 68 -77 144 -119 144 -29 0 -70 -18 -103 -46
-31 -26 -31 -26 -47 -7 -14 17 -15 64 -14 366 1 191 -1 347 -5 347 -3 0 -8 24
-9 53 -2 46 -8 92 -12 92 -1 0 -3 16 -5 35 -10 88 -40 222 -56 251 -6 11 -8
27 -5 35 3 8 0 14 -6 14 -6 0 -8 3 -5 7 4 3 1 13 -6 21 -6 8 -12 22 -13 31 0
9 -8 33 -17 55 -9 21 -17 42 -17 47 0 5 -4 9 -10 9 -5 0 -10 4 -10 9 0 9 -52
120 -73 157 -23 40 -72 109 -79 112 -5 2 -8 8 -8 14 0 25 -236 275 -315 335
-69 52 -185 133 -190 133 -3 0 -31 16 -61 35 -30 19 -61 35 -69 35 -8 0 -15 5
-15 10 0 6 -9 10 -19 10 -11 0 -22 4 -26 9 -6 10 -105 46 -117 43 -5 -1 -8 3
-8 9 0 6 -6 9 -14 6 -8 -3 -20 0 -26 8 -6 7 -20 11 -30 8 -11 -3 -20 0 -20 6
0 6 -3 10 -7 10 -5 -1 -11 0 -15 1 -13 4 -92 21 -123 26 -5 1 -12 3 -15 4 -3
1 -16 3 -30 6 -14 2 -41 7 -60 10 -19 4 -53 9 -75 10 -66 6 -365 11 -369 6z"/>
</g>
</svg>
